<svg xmlns="http://www.w3.org/2000/svg" width="16.075" height="16.19" viewBox="0 0 16.075 16.19">
  <g id="discount" transform="translate(-3.9 -3.9)">
    <path id="Path_2062" data-name="Path 2062" d="M38.428,37.839l-5,3.971a.241.241,0,0,0-.033.347.236.236,0,0,0,.2.1.231.231,0,0,0,.149-.05l5-3.971a.254.254,0,0,0-.314-.4Z" transform="translate(-24.149 -27.863)" fill="#cb955b" stroke="#cb955b" stroke-width="0.5"/>
    <path id="Path_2063" data-name="Path 2063" d="M35.67,36.044a.806.806,0,0,0,.2-.017,1.247,1.247,0,0,0,1.042-1.44,1.276,1.276,0,0,0-.5-.827,1.232,1.232,0,0,0-.927-.232,1.276,1.276,0,0,0-.827.5,1.232,1.232,0,0,0-.232.927A1.273,1.273,0,0,0,35.67,36.044Zm-.116-2c.033,0,.083-.017.116-.017a.757.757,0,1,1-.745.877A.762.762,0,0,1,35.554,34.042Z" transform="translate(-24.048 -25.297)" fill="#cb955b" stroke="#cb955b" stroke-width="0.5"/>
    <path id="Path_2064" data-name="Path 2064" d="M51.658,53.8a1.258,1.258,0,1,0,1.258,1.258A1.279,1.279,0,0,0,51.658,53.8Zm0,2a.761.761,0,1,1,.761-.761A.77.77,0,0,1,51.658,55.8Z" transform="translate(-38.388 -41.226)" fill="#cb955b" stroke="#cb955b" stroke-width="0.5"/>
    <path id="Path_2065" data-name="Path 2065" d="M19.458,12c0-.017.017-.05.017-.066,0-.712-.745-1.076-1.39-1.39-.463-.232-.96-.48-1.092-.778a2.116,2.116,0,0,1,.232-1.307c.248-.678.5-1.373.033-1.837s-1.125-.3-1.787-.149a2.411,2.411,0,0,1-1.258.083,2.361,2.361,0,0,1-.827-.943c-.364-.563-.761-1.208-1.456-1.208s-1.092.645-1.44,1.225a2.288,2.288,0,0,1-.811.96,2.331,2.331,0,0,1-1.274-.1c-.662-.165-1.34-.331-1.787.116-.463.463-.232,1.158-.017,1.837a2.208,2.208,0,0,1,.182,1.324c-.132.314-.6.546-1.042.778-.629.331-1.34.695-1.34,1.39A.1.1,0,0,0,4.417,12c0,.017-.017.05-.017.066,0,.695.712,1.076,1.34,1.39.447.232.91.463,1.042.778A2.358,2.358,0,0,1,6.6,15.553c-.215.678-.447,1.373.017,1.837s1.142.281,1.787.116a2.331,2.331,0,0,1,1.274-.1,2.288,2.288,0,0,1,.811.96c.347.579.745,1.225,1.44,1.225s1.109-.645,1.456-1.208a2.361,2.361,0,0,1,.827-.943,2.244,2.244,0,0,1,1.258.083c.645.149,1.324.314,1.787-.149s.215-1.158-.033-1.837a2.132,2.132,0,0,1-.232-1.307c.132-.314.612-.546,1.092-.778.645-.331,1.39-.695,1.39-1.39C19.475,12.028,19.458,12.012,19.458,12ZM17.853,13c-.546.281-1.125.563-1.324,1.042a2.435,2.435,0,0,0,.215,1.671c.2.546.4,1.076.149,1.307-.265.265-.778.149-1.324.017A2.567,2.567,0,0,0,14,16.993a2.558,2.558,0,0,0-1.042,1.125c-.314.5-.612.976-1.042.976-.414,0-.712-.48-1.026-.993a2.559,2.559,0,0,0-1.042-1.158,2.516,2.516,0,0,0-1.589.083c-.546.132-1.059.265-1.324.017-.248-.248-.083-.778.1-1.324A2.456,2.456,0,0,0,7.2,14.064a2.441,2.441,0,0,0-1.274-1.026c-.546-.281-1.059-.546-1.059-.96a.1.1,0,0,0-.017-.066c0-.017.017-.05.017-.066,0-.4.513-.662,1.059-.96A2.441,2.441,0,0,0,7.2,9.96a2.542,2.542,0,0,0-.165-1.655c-.182-.563-.347-1.092-.1-1.324.265-.265.778-.132,1.324.017a2.636,2.636,0,0,0,1.589.083,2.559,2.559,0,0,0,1.042-1.158c.314-.513.6-.993,1.026-.993s.728.48,1.042.976A2.761,2.761,0,0,0,14,7.031a2.7,2.7,0,0,0,1.572-.05c.546-.132,1.059-.248,1.324.017.248.232.05.761-.149,1.307a2.345,2.345,0,0,0-.215,1.671c.2.48.778.761,1.324,1.042.579.281,1.109.563,1.109.96a.1.1,0,0,0,.017.066c0,.017-.017.05-.017.066C18.978,12.442,18.432,12.723,17.853,13Z" fill="#1e1e1e" stroke="#1e1e1e" stroke-width="1"/>
  </g>
</svg>
