<svg xmlns="http://www.w3.org/2000/svg" width="15.575" height="15.575" viewBox="0 0 15.575 15.575">
  <g id="g1347" transform="translate(-2 -292.65)">
    <path id="circle1332" d="M9.788,292.65a7.788,7.788,0,1,0,7.788,7.788A7.8,7.8,0,0,0,9.788,292.65Zm0,1.558a6.23,6.23,0,1,1-6.23,6.23A6.218,6.218,0,0,1,9.788,294.208Z"/>
    <path id="path1340" d="M11.779,299.65a.779.779,0,0,0-.779.779v5.451a.779.779,0,0,0,1.558,0v-5.451A.779.779,0,0,0,11.779,299.65Z" transform="translate(-1.991 -1.549)" fill="#cb955b"/>
    <path id="path1342" d="M12.558,297.429a.779.779,0,1,1-.779-.779A.779.779,0,0,1,12.558,297.429Z" transform="translate(-1.991 -0.885)" fill="#cb955b"/>
  </g>
</svg>
